ffmpeg started on 2023-11-09 at 17:19:50
Report written to "./attempt002.log"
Log level: 32
Command line:
/usr/bin/ffmpeg -y -i "/mnt/share/Ghost in the Shell Stand Alone Complex (2002)/Episode S01E01.mkv" -vcodec libx264 -acodec copy -scodec copy -map 0 "/mnt/share/ffmpeg_out/Episode S01E01.mkv"
ffmpeg version 4.4.2-0ubuntu0.22.04.1 Copyright (c) 2000-2021 the FFmpeg developers
  built with gcc 11 (Ubuntu 11.2.0-19ubuntu1)
  configuration: --prefix=/usr --extra-version=0ubuntu0.22.04.1 --toolchain=hardened --libdir=/usr/lib/aarch64-linux-gnu --incdir=/usr/include/aarch64-linux-gnu --arch=arm64 --enable-gpl --disable-stripping --enable-gnutls --enable-ladspa --enable-libaom --enable-libass --enable-libbluray --enable-libbs2b --enable-libcaca --enable-libcdio --enable-libcodec2 --enable-libdav1d --enable-libflite --enable-libfontconfig --enable-libfreetype --enable-libfribidi --enable-libgme --enable-libgsm --enable-libjack --enable-libmp3lame --enable-libmysofa --enable-libopenjpeg --enable-libopenmpt --enable-libopus --enable-libpulse --enable-librabbitmq --enable-librubberband --enable-libshine --enable-libsnappy --enable-libsoxr --enable-libspeex --enable-libsrt --enable-libssh --enable-libtheora --enable-libtwolame --enable-libvidstab --enable-libvorbis --enable-libvpx --enable-libwebp --enable-libx265 --enable-libxml2 --enable-libxvid --enable-libzimg --enable-libzmq --enable-libzvbi --enable-lv2 --enable-omx --enable-open  libavutil      56. 70.100 / 56. 70.100
  libavcodec     58.134.100 / 58.134.100
  libavformat    58. 76.100 / 58. 76.100
  libavdevice    58. 13.100 / 58. 13.100
  libavfilter     7.110.100 /  7.110.100
  libswscale      5.  9.100 /  5.  9.100
  libswresample   3.  9.100 /  3.  9.100
  libpostproc    55.  9.100 / 55.  9.100
Input #0, matroska,webm, from '/mnt/share/Ghost in the Shell Stand Alone Complex (2002)/Episode S01E01.mkv':
  Metadata:
    encoder         : libmakemkv v1.17.4 (1.3.10/1.5.2) darwin(arm64-release)
    creation_time   : 2023-08-16T01:08:07.000000Z
  Duration: 00:26:13.47, start: 0.000000, bitrate: 6462 kb/s
  Chapters:
    Chapter #0:0: start 0.066733, end 91.291200
      Metadata:
        title           : Chapter 01
    Chapter #0:1: start 91.291200, end 604.737467
      Metadata:
        title           : Chapter 02
    Chapter #0:2: start 604.737467, end 1381.346633
      Metadata:
        title           : Chapter 03
    Chapter #0:3: start 1381.346633, end 1471.703567
      Metadata:
        title           : Chapter 04
    Chapter #0:4: start 1471.703567, end 1573.471900
      Metadata:
        title           : Chapter 05
  Stream #0:0(eng): Video: mpeg2video (Main), yuv420p(tv, top first), 720x480 [SAR 8:9 DAR 4:3], 3400 kb/s, 29.97 fps, 29.97 tbr, 1k tbn, 59.94 tbc
    Metadata:
      BPS-eng         : 5170825
      DURATION-eng    : 00:26:13.471900000
      NUMBER_OF_FRAMES-eng: 44475
      NUMBER_OF_BYTES-eng: 1017018067
      SOURCE_ID-eng   : 0100E0
      _STATISTICS_WRITING_APP-eng: MakeMKV v1.17.4 darwin(arm64-release)
      _STATISTICS_WRITING_DATE_UTC-eng: 2023-08-16 01:08:07
      _STATISTICS_TAGS-eng: BPS DURATION NUMBER_OF_FRAMES NUMBER_OF_BYTES SOURCE_ID
    Side data:
      cpb: bitrate max/min/avg: 3400000/0/0 buffer size: 1835008 vbv_delay: N/A
  Stream #0:1(jpn): Audio: ac3, 48000 Hz, 5.1(side), fltp, 448 kb/s (default)
    Metadata:
      title           : Surround 5.1
      BPS-eng         : 448000
      DURATION-eng    : 00:26:13.280000000
      NUMBER_OF_FRAMES-eng: 49165
      NUMBER_OF_BYTES-eng: 88103680
      SOURCE_ID-eng   : 0180BD
      _STATISTICS_WRITING_APP-eng: MakeMKV v1.17.4 darwin(arm64-release)
      _STATISTICS_WRITING_DATE_UTC-eng: 2023-08-16 01:08:07
      _STATISTICS_TAGS-eng: BPS DURATION NUMBER_OF_FRAMES NUMBER_OF_BYTES SOURCE_ID
  Stream #0:2(eng): Audio: ac3, 48000 Hz, 5.1(side), fltp, 448 kb/s
    Metadata:
      title           : Surround 5.1
      BPS-eng         : 448000
      DURATION-eng    : 00:26:13.280000000
      NUMBER_OF_FRAMES-eng: 49165
      NUMBER_OF_BYTES-eng: 88103680
      SOURCE_ID-eng   : 0181BD
      _STATISTICS_WRITING_APP-eng: MakeMKV v1.17.4 darwin(arm64-release)
      _STATISTICS_WRITING_DATE_UTC-eng: 2023-08-16 01:08:07
      _STATISTICS_TAGS-eng: BPS DURATION NUMBER_OF_FRAMES NUMBER_OF_BYTES SOURCE_ID
  Stream #0:3(jpn): Audio: ac3, 48000 Hz, stereo, fltp, 192 kb/s
    Metadata:
      title           : Stereo
      BPS-eng         : 192000
      DURATION-eng    : 00:26:13.376000000
      NUMBER_OF_FRAMES-eng: 49168
      NUMBER_OF_BYTES-eng: 37761024
      SOURCE_ID-eng   : 0182BD
      _STATISTICS_WRITING_APP-eng: MakeMKV v1.17.4 darwin(arm64-release)
      _STATISTICS_WRITING_DATE_UTC-eng: 2023-08-16 01:08:07
      _STATISTICS_TAGS-eng: BPS DURATION NUMBER_OF_FRAMES NUMBER_OF_BYTES SOURCE_ID
  Stream #0:4(eng): Audio: ac3, 48000 Hz, stereo, fltp, 192 kb/s
    Metadata:
      title           : Stereo
      BPS-eng         : 192000
      DURATION-eng    : 00:26:13.376000000
      NUMBER_OF_FRAMES-eng: 49168
      NUMBER_OF_BYTES-eng: 37761024
      SOURCE_ID-eng   : 0183BD
      _STATISTICS_WRITING_APP-eng: MakeMKV v1.17.4 darwin(arm64-release)
      _STATISTICS_WRITING_DATE_UTC-eng: 2023-08-16 01:08:07
      _STATISTICS_TAGS-eng: BPS DURATION NUMBER_OF_FRAMES NUMBER_OF_BYTES SOURCE_ID
  Stream #0:5(eng): Subtitle: dvd_subtitle, 720x480 (default)
    Metadata:
      BPS-eng         : 4005
      DURATION-eng    : 00:26:04.190966666
      NUMBER_OF_FRAMES-eng: 280
      NUMBER_OF_BYTES-eng: 783256
      SOURCE_ID-eng   : 0120BD
      _STATISTICS_WRITING_APP-eng: MakeMKV v1.17.4 darwin(arm64-release)
      _STATISTICS_WRITING_DATE_UTC-eng: 2023-08-16 01:08:07
      _STATISTICS_TAGS-eng: BPS DURATION NUMBER_OF_FRAMES NUMBER_OF_BYTES SOURCE_ID
  Stream #0:6(eng): Subtitle: dvd_subtitle, 720x480
    Metadata:
      BPS-eng         : 242
      DURATION-eng    : 00:19:11.609833333
      NUMBER_OF_FRAMES-eng: 16
      NUMBER_OF_BYTES-eng: 34894
      SOURCE_ID-eng   : 0121BD
      _STATISTICS_WRITING_APP-eng: MakeMKV v1.17.4 darwin(arm64-release)
      _STATISTICS_WRITING_DATE_UTC-eng: 2023-08-16 01:08:07
      _STATISTICS_TAGS-eng: BPS DURATION NUMBER_OF_FRAMES NUMBER_OF_BYTES SOURCE_ID
Stream mapping:
  Stream #0:0 -> #0:0 (mpeg2video (native) -> h264 (libx264))
  Stream #0:1 -> #0:1 (copy)
  Stream #0:2 -> #0:2 (copy)
  Stream #0:3 -> #0:3 (copy)
  Stream #0:4 -> #0:4 (copy)
  Stream #0:5 -> #0:5 (copy)
  Stream #0:6 -> #0:6 (copy)
Press [q] to stop, [?] for help
[libx264 @ 0xaaaac83fc030] using SAR=8/9
[libx264 @ 0xaaaac83fc030] using cpu capabilities: ARMv8 NEON
[libx264 @ 0xaaaac83fc030] profile High, level 3.0, 4:2:0, 8-bit
[libx264 @ 0xaaaac83fc030] 264 - core 163 r3060 5db6aa6 - H.264/MPEG-4 AVC codec - Copyleft 2003-2021 - http://www.videolan.org/x264.html - options: cabac=1 ref=3 deblock=1:0:0 analyse=0x3:0x113 me=hex subme=7 psy=1 psy_rd=1.00:0.00 mixed_ref=1 me_range=16 chroma_me=1 trellis=1 8x8dct=1 cqm=0 deadzone=21,11 fast_pskip=1 chroma_qp_offset=-2 threads=12 lookahead_threads=2 sliced_threads=0 nr=0 decimate=1 interlaced=0 bluray_compat=0 constrained_intra=0 bframes=3 b_pyramid=2 b_adapt=1 b_bias=0 direct=1 weightb=1 open_gop=0 weightp=2 keyint=250 keyint_min=25 scenecut=40 intra_refresh=0 rc_lookahead=40 rc=crf mbtree=1 crf=23.0 qcomp=0.60 qpmin=0 qpmax=69 qpstep=4 ip_ratio=1.40 aq=1:1.00
Output #0, matroska, to '/mnt/share/ffmpeg_out/Episode S01E01.mkv':
  Metadata:
    encoder         : Lavf58.76.100
  Chapters:
    Chapter #0:0: start 0.066733, end 91.291200
      Metadata:
        title           : Chapter 01
    Chapter #0:1: start 91.291200, end 604.737467
      Metadata:
        title           : Chapter 02
    Chapter #0:2: start 604.737467, end 1381.346633
      Metadata:
        title           : Chapter 03
    Chapter #0:3: start 1381.346633, end 1471.703567
      Metadata:
        title           : Chapter 04
    Chapter #0:4: start 1471.703567, end 1573.471900
      Metadata:
        title           : Chapter 05
  Stream #0:0(eng): Video: h264 (H264 / 0x34363248), yuv420p(tv, top coded first (swapped)), 720x480 [SAR 8:9 DAR 4:3], q=2-31, 29.97 fps, 1k tbn
    Metadata:
      BPS-eng         : 5170825
      DURATION-eng    : 00:26:13.471900000
      NUMBER_OF_FRAMES-eng: 44475
      NUMBER_OF_BYTES-eng: 1017018067
      SOURCE_ID-eng   : 0100E0
      _STATISTICS_WRITING_APP-eng: MakeMKV v1.17.4 darwin(arm64-release)
      _STATISTICS_WRITING_DATE_UTC-eng: 2023-08-16 01:08:07
      _STATISTICS_TAGS-eng: BPS DURATION NUMBER_OF_FRAMES NUMBER_OF_BYTES SOURCE_ID
      encoder         : Lavc58.134.100 libx264
    Side data:
      cpb: bitrate max/min/avg: 0/0/0 buffer size: 0 vbv_delay: N/A
  Stream #0:1(jpn): Audio: ac3 ([0] [0][0] / 0x2000), 48000 Hz, 5.1(side), fltp, 448 kb/s (default)
    Metadata:
      title           : Surround 5.1
      BPS-eng         : 448000
      DURATION-eng    : 00:26:13.280000000
      NUMBER_OF_FRAMES-eng: 49165
      NUMBER_OF_BYTES-eng: 88103680
      SOURCE_ID-eng   : 0180BD
      _STATISTICS_WRITING_APP-eng: MakeMKV v1.17.4 darwin(arm64-release)
      _STATISTICS_WRITING_DATE_UTC-eng: 2023-08-16 01:08:07
      _STATISTICS_TAGS-eng: BPS DURATION NUMBER_OF_FRAMES NUMBER_OF_BYTES SOURCE_ID
  Stream #0:2(eng): Audio: ac3 ([0] [0][0] / 0x2000), 48000 Hz, 5.1(side), fltp, 448 kb/s
    Metadata:
      title           : Surround 5.1
      BPS-eng         : 448000
      DURATION-eng    : 00:26:13.280000000
      NUMBER_OF_FRAMES-eng: 49165
      NUMBER_OF_BYTES-eng: 88103680
      SOURCE_ID-eng   : 0181BD
      _STATISTICS_WRITING_APP-eng: MakeMKV v1.17.4 darwin(arm64-release)
      _STATISTICS_WRITING_DATE_UTC-eng: 2023-08-16 01:08:07
      _STATISTICS_TAGS-eng: BPS DURATION NUMBER_OF_FRAMES NUMBER_OF_BYTES SOURCE_ID
  Stream #0:3(jpn): Audio: ac3 ([0] [0][0] / 0x2000), 48000 Hz, stereo, fltp, 192 kb/s
    Metadata:
      title           : Stereo
      BPS-eng         : 192000
      DURATION-eng    : 00:26:13.376000000
      NUMBER_OF_FRAMES-eng: 49168
      NUMBER_OF_BYTES-eng: 37761024
      SOURCE_ID-eng   : 0182BD
      _STATISTICS_WRITING_APP-eng: MakeMKV v1.17.4 darwin(arm64-release)
      _STATISTICS_WRITING_DATE_UTC-eng: 2023-08-16 01:08:07
      _STATISTICS_TAGS-eng: BPS DURATION NUMBER_OF_FRAMES NUMBER_OF_BYTES SOURCE_ID
  Stream #0:4(eng): Audio: ac3 ([0] [0][0] / 0x2000), 48000 Hz, stereo, fltp, 192 kb/s
    Metadata:
      title           : Stereo
      BPS-eng         : 192000
      DURATION-eng    : 00:26:13.376000000
      NUMBER_OF_FRAMES-eng: 49168
      NUMBER_OF_BYTES-eng: 37761024
      SOURCE_ID-eng   : 0183BD
      _STATISTICS_WRITING_APP-eng: MakeMKV v1.17.4 darwin(arm64-release)
      _STATISTICS_WRITING_DATE_UTC-eng: 2023-08-16 01:08:07
      _STATISTICS_TAGS-eng: BPS DURATION NUMBER_OF_FRAMES NUMBER_OF_BYTES SOURCE_ID
  Stream #0:5(eng): Subtitle: dvd_subtitle ([255][255][255][255] / 0xFFFFFFFF), 720x480 (default)
    Metadata:
      BPS-eng         : 4005
      DURATION-eng    : 00:26:04.190966666
      NUMBER_OF_FRAMES-eng: 280
      NUMBER_OF_BYTES-eng: 783256
      SOURCE_ID-eng   : 0120BD
      _STATISTICS_WRITING_APP-eng: MakeMKV v1.17.4 darwin(arm64-release)
      _STATISTICS_WRITING_DATE_UTC-eng: 2023-08-16 01:08:07
      _STATISTICS_TAGS-eng: BPS DURATION NUMBER_OF_FRAMES NUMBER_OF_BYTES SOURCE_ID
  Stream #0:6(eng): Subtitle: dvd_subtitle ([255][255][255][255] / 0xFFFFFFFF), 720x480
    Metadata:
      BPS-eng         : 242
      DURATION-eng    : 00:19:11.609833333
      NUMBER_OF_FRAMES-eng: 16
      NUMBER_OF_BYTES-eng: 34894
      SOURCE_ID-eng   : 0121BD
      _STATISTICS_WRITING_APP-eng: MakeMKV v1.17.4 darwin(arm64-release)
      _STATISTICS_WRITING_DATE_UTC-eng: 2023-08-16 01:08:07
      _STATISTICS_TAGS-eng: BPS DURATION NUMBER_OF_FRAMES NUMBER_OF_BYTES SOURCE_ID
frame=    1 fps=0.0 q=0.0 size=       6kB time=00:00:00.00 bitrate=N/A speed=   0x    frame=  142 fps=0.0 q=29.0 size=     193kB time=00:00:04.70 bitrate= 335.9kbits/s speed=9.36x    frame=  199 fps=198 q=29.0 size=     768kB time=00:00:06.65 bitrate= 945.2kbits/s speed=6.64x    frame=  247 fps=163 q=29.0 size=     768kB time=00:00:08.22 bitrate= 765.0kbits/s speed=5.43x    frame=  306 fps=152 q=29.0 size=     768kB time=00:00:10.24 bitrate= 614.4kbits/s speed=5.08x    frame=  367 fps=145 q=29.0 size=    3072kB time=00:00:12.25 bitrate=2053.3kbits/s speed=4.86x    frame=  436 fps=144 q=29.0 size=    3072kB time=00:00:14.52 bitrate=1732.2kbits/s speed= 4.8x    frame=  474 fps=134 q=29.0 size=    3072kB time=00:00:15.84 bitrate=1588.8kbits/s speed=4.48x    frame=  520 fps=129 q=29.0 size=    4864kB time=00:00:17.34 bitrate=2297.4kbits/s speed= 4.3x    frame=  580 fps=128 q=29.0 size=    4864kB time=00:00:19.32 bitrate=2061.6kbits/s speed=4.26x    frame=  652 fps=129 q=29.0 size=    5376kB time=00:00:21.76 bitrate=2023.9kbits/s speed=4.29x    frame=  706 fps=127 q=29.0 size=    6656kB time=00:00:23.55 bitrate=2315.1kbits/s speed=4.22x    frame=  757 fps=124 q=29.0 size=    6656kB time=00:00:25.28 bitrate=2156.9kbits/s speed=4.15x    frame=  813 fps=123 q=29.0 size=    6656kB time=00:00:27.13 bitrate=2009.4kbits/s speed=4.11x    frame=  856 fps=121 q=26.0 size=    7424kB time=00:00:28.54 bitrate=2130.7kbits/s speed=4.02x    frame=  919 fps=121 q=29.0 size=    8704kB time=00:00:30.68 bitrate=2323.5kbits/s speed=4.03x    frame=  975 fps=120 q=29.0 size=    8704kB time=00:00:32.54 bitrate=2191.0kbits/s speed=4.01x    frame= 1024 fps=119 q=29.0 size=    9728kB time=00:00:34.17 bitrate=2331.8kbits/s speed=3.96x    frame= 1072 fps=117 q=29.0 size=    9728kB time=00:00:35.77 bitrate=2227.5kbits/s speed=3.91x    frame= 1120 fps=116 q=29.0 size=    9728kB time=00:00:37.37 bitrate=2132.2kbits/s speed=3.87x    frame= 1183 fps=117 q=29.0 size=   12288kB time=00:00:39.48 bitrate=2549.2kbits/s speed=3.89x    frame= 1243 fps=116 q=29.0 size=   12288kB time=00:00:41.50 bitrate=2425.4kbits/s speed=3.89x    frame= 1309 fps=117 q=29.0 size=   12288kB time=00:00:43.64 bitrate=2306.3kbits/s speed=3.91x    frame= 1374 fps=118 q=29.0 size=   13568kB time=00:00:45.85 bitrate=2423.9kbits/s speed=3.93x    frame= 1444 fps=119 q=29.0 size=   13568kB time=00:00:48.16 bitrate=2307.9kbits/s speed=3.95x    frame= 1501 fps=118 q=29.0 size=   14336kB time=00:00:50.08 bitrate=2345.1kbits/s speed=3.93x    frame= 1546 fps=116 q=29.0 size=   14336kB time=00:00:51.55 bitrate=2278.1kbits/s speed=3.88x    frame= 1590 fps=115 q=29.0 size=   14336kB time=00:00:53.05 bitrate=2213.5kbits/s speed=3.85x    frame= 1636 fps=115 q=29.0 size=   14336kB time=00:00:54.59 bitrate=2151.2kbits/s speed=3.82x    frame= 1699 fps=115 q=29.0 size=   17408kB time=00:00:56.70 bitrate=2514.9kbits/s speed=3.84x    frame= 1735 fps=113 q=29.0 size=   17920kB time=00:00:57.92 bitrate=2534.5kbits/s speed=3.79x    frame= 1773 fps=112 q=29.0 size=   17920kB time=00:00:59.16 bitrate=2481.1kbits/s speed=3.75x    frame= 1821 fps=112 q=29.0 size=   17920kB time=00:01:00.76 bitrate=2415.8kbits/s speed=3.73x    frame= 1885 fps=112 q=29.0 size=   19200kB time=00:01:02.88 bitrate=2501.4kbits/s speed=3.74x    frame= 1924 fps=111 q=29.0 size=   20736kB time=00:01:04.19 bitrate=2646.3kbits/s speed= 3.7x    frame= 1969 fps=110 q=29.0 size=   20736kB time=00:01:05.69 bitrate=2585.7kbits/s speed=3.67x    frame= 2017 fps=110 q=26.0 size=   20736kB time=00:01:07.26 bitrate=2525.4kbits/s speed=3.66x    frame= 2053 fps=109 q=29.0 size=   22272kB time=00:01:08.48 bitrate=2664.3kbits/s speed=3.63x    frame= 2092 fps=108 q=29.0 size=   22272kB time=00:01:09.82 bitrate=2613.0kbits/s speed= 3.6x    frame= 2154 fps=108 q=29.0 size=   22272kB time=00:01:11.90 bitrate=2537.4kbits/s speed=3.61x    frame= 2212 fps=108 q=29.0 size=   22272kB time=00:01:13.79 bitrate=2472.5kbits/s speed=3.62x    frame= 2262 fps=108 q=29.0 size=   22272kB time=00:01:15.48 bitrate=2417.0kbits/s speed=3.61x    frame= 2305 fps=108 q=29.0 size=   22272kB time=00:01:16.92 bitrate=2371.7kbits/s speed=3.59x    frame= 2368 fps=108 q=29.0 size=   22272kB time=00:01:19.00 bitrate=2309.3kbits/s speed= 3.6x    frame= 2425 fps=108 q=29.0 size=   26112kB time=00:01:20.92 bitrate=2643.2kbits/s speed=3.61x    frame= 2482 fps=108 q=29.0 size=   26112kB time=00:01:22.78 bitrate=2583.9kbits/s speed= 3.6x    frame= 2527 fps=108 q=29.0 size=   26112kB time=00:01:24.28 bitrate=2537.8kbits/s speed=3.59x    frame= 2590 fps=108 q=29.0 size=   28160kB time=00:01:26.43 bitrate=2669.0kbits/s speed= 3.6x    frame= 2652 fps=108 q=29.0 size=   28160kB time=00:01:28.51 bitrate=2606.3kbits/s speed=3.61x    frame= 2716 fps=109 q=29.0 size=   28160kB time=00:01:30.59 bitrate=2546.4kbits/s speed=3.62x    frame= 2798 fps=110 q=29.0 size=   28160kB time=00:01:33.56 bitrate=2465.4kbits/s speed=3.67x    frame= 2946 fps=113 q=29.0 size=   29440kB time=00:01:38.84 bitrate=2439.8kbits/s speed= 3.8x    frame= 3111 fps=117 q=29.0 size=   30464kB time=00:01:44.64 bitrate=2384.9kbits/s speed=3.95x    frame= 3165 fps=117 q=29.0 size=   31488kB time=00:01:46.94 bitrate=2412.0kbits/s speed=3.96x    frame= 3234 fps=117 q=29.0 size=   31488kB time=00:01:49.79 bitrate=2349.4kbits/s speed=3.99x    frame= 3300 fps=118 q=27.0 size=   32512kB time=00:01:52.57 bitrate=2365.9kbits/s speed=4.01x    frame= 3384 fps=119 q=29.0 size=   32512kB time=00:01:55.77 bitrate=2300.5kbits/s speed=4.06x    frame= 3457 fps=119 q=27.0 size=   34048kB time=00:01:58.78 bitrate=2348.1kbits/s speed=4.09x    frame= 3531 fps=119 q=29.0 size=   34048kB time=00:02:01.88 bitrate=2288.3kbits/s speed=4.12x    frame= 3622 fps=120 q=29.0 size=   35328kB time=00:02:04.99 bitrate=2315.4kbits/s speed=4.16x    frame= 3724 fps=122 q=29.0 size=   36352kB time=00:02:08.48 bitrate=2317.8kbits/s speed= 4.2x    frame= 3832 fps=123 q=27.0 size=   37120kB time=00:02:12.51 bitrate=2294.8kbits/s speed=4.26x    frame= 3898 fps=123 q=29.0 size=   37376kB time=00:02:14.84 bitrate=2270.6kbits/s speed=4.26x    frame= 3979 fps=124 q=27.0 size=   37888kB time=00:02:18.01 bitrate=2248.9kbits/s speed= 4.3x    frame= 4036 fps=124 q=29.0 size=   38400kB time=00:02:20.19 bitrate=2243.9kbits/s speed= 4.3x    frame= 4104 fps=124 q=29.0 size=   38400kB time=00:02:22.49 bitrate=2207.6kbits/s speed= 4.3x    frame= 4198 fps=125 q=29.0 size=   39680kB time=00:02:25.60 bitrate=2232.5kbits/s speed=4.33x    frame= 4273 fps=125 q=27.0 size=   40704kB time=00:02:28.60 bitrate=2243.8kbits/s speed=4.35x    frame= 4354 fps=126 q=29.0 size=   41216kB time=00:02:31.48 bitrate=2228.8kbits/s speed=4.37x    frame= 4426 fps=126 q=29.0 size=   41984kB time=00:02:34.04 bitrate=2232.6kbits/s speed=4.38x    frame= 4495 fps=126 q=28.0 size=   42496kB time=00:02:36.67 bitrate=2222.0kbits/s speed= 4.4x    frame= 4551 fps=126 q=29.0 size=   43264kB time=00:02:38.91 bitrate=2230.3kbits/s speed=4.39x    frame= 4612 fps=126 q=29.0 size=   43776kB time=00:02:41.15 bitrate=2225.3kbits/s speed= 4.4x    frame= 4681 fps=126 q=29.0 size=   44544kB time=00:02:43.84 bitrate=2227.2kbits/s speed=4.41x    frame= 4753 fps=126 q=29.0 size=   45312kB time=00:02:46.52 bitrate=2229.0kbits/s speed=4.42x    frame= 4848 fps=127 q=29.0 size=   46336kB time=00:02:49.76 bitrate=2236.0kbits/s speed=4.45x    frame= 4936 fps=128 q=29.0 size=   47104kB time=00:02:52.96 bitrate=2231.0kbits/s speed=4.47x    frame= 5077 fps=130 q=29.0 size=   47872kB time=00:02:57.69 bitrate=2207.0kbits/s speed=4.53x    frame= 5193 fps=131 q=29.0 size=   49152kB time=00:03:01.56 bitrate=2217.6kbits/s speed=4.57x    frame= 5317 fps=132 q=29.0 size=   49920kB time=00:03:05.76 bitrate=2201.5kbits/s speed=4.62x    frame= 5449 fps=134 q=29.0 size=   50688kB time=00:03:10.14 bitrate=2183.8kbits/s speed=4.67x    frame= 5518 fps=134 q=29.0 size=   51200kB time=00:03:13.05 bitrate=2172.6kbits/s speed=4.69x    frame= 5581 fps=134 q=29.0 size=   51712kB time=00:03:15.20 bitrate=2170.2kbits/s speed=4.68x    frame= 5640 fps=134 q=29.0 size=   51712kB time=00:03:17.56 bitrate=2144.2kbits/s speed=4.68x    frame= 5700 fps=133 q=29.0 size=   51712kB time=00:03:19.58 bitrate=2122.5kbits/s speed=4.67x    frame= 5762 fps=133 q=29.0 size=   54784kB time=00:03:21.88 bitrate=2223.0kbits/s speed=4.67x    frame= 5806 fps=133 q=29.0 size=   55808kB time=00:03:23.71 bitrate=2244.2kbits/s speed=4.66x    frame= 5848 fps=132 q=28.0 size=   55808kB time=00:03:25.47 bitrate=2225.0kbits/s speed=4.64x    frame= 5901 fps=132 q=29.0 size=   55808kB time=00:03:27.64 bitrate=2201.7kbits/s speed=4.64x    frame= 5974 fps=132 q=29.0 size=   55808kB time=00:03:30.56 bitrate=2171.3kbits/s speed=4.65x    frame= 6043 fps=132 q=29.0 size=   55808kB time=00:03:33.50 bitrate=2141.3kbits/s speed=4.67x    frame= 6114 fps=132 q=29.0 size=   57600kB time=00:03:36.48 bitrate=2179.7kbits/s speed=4.68x    frame= 6175 fps=132 q=29.0 size=   58368kB time=00:03:38.94 bitrate=2183.9kbits/s speed=4.68x    frame= 6234 fps=132 q=29.0 size=   58368kB time=00:03:41.40 bitrate=2159.6kbits/s speed=4.68x    frame= 6306 fps=132 q=29.0 size=   59648kB time=00:03:44.41 bitrate=2177.4kbits/s speed= 4.7x    frame= 6375 fps=132 q=29.0 size=   59648kB time=00:03:47.16 bitrate=2151.0kbits/s speed= 4.7x    frame= 6457 fps=132 q=27.0 size=   60672kB time=00:03:50.46 bitrate=2156.6kbits/s speed=4.72x    frame= 6571 fps=133 q=29.0 size=   61952kB time=00:03:54.27 bitrate=2166.3kbits/s speed=4.75x    frame= 6708 fps=135 q=29.0 size=   62464kB time=00:03:58.88 bitrate=2142.1kbits/s speed=4.79x    frame= 6823 fps=136 q=29.0 size=   63488kB time=00:04:02.68 bitrate=2143.1kbits/s speed=4.82x    frame= 6931 fps=136 q=29.0 size=   64256kB time=00:04:06.65 bitrate=2134.1kbits/s speed=4.85x    frame= 6997 fps=136 q=29.0 size=   64768kB time=00:04:08.96 bitrate=2131.2kbits/s speed=4.85x    frame= 7083 fps=137 q=29.0 size=   65536kB time=00:04:12.35 bitrate=2127.5kbits/s speed=4.87x    frame= 7161 fps=137 q=29.0 size=   66048kB time=00:04:15.61 bitrate=2116.7kbits/s speed=4.88x    frame= 7236 fps=137 q=29.0 size=   66816kB time=00:04:18.72 bitrate=2115.6kbits/s speed= 4.9x    frame= 7302 fps=137 q=29.0 size=   66816kB time=00:04:21.53 bitrate=2092.9kbits/s speed= 4.9x    frame= 7383 fps=137 q=28.0 size=   67584kB time=00:04:24.83 bitrate=2090.6kbits/s speed=4.92x    frame= 7467 fps=137 q=27.0 size=   68608kB time=00:04:28.41 bitrate=2093.9kbits/s speed=4.94x    frame= 7546 fps=137 q=29.0 size=   69632kB time=00:04:31.58 bitrate=2100.4kbits/s speed=4.95x    frame= 7660 fps=138 q=29.0 size=   69632kB time=00:04:35.29 bitrate=2072.0kbits/s speed=4.97x    frame= 7791 fps=139 q=29.0 size=   70656kB time=00:04:39.68 bitrate=2069.6kbits/s speed=   5x    frame= 7926 fps=141 q=29.0 size=   71424kB time=00:04:44.19 bitrate=2058.8kbits/s speed=5.04x    